# xmcd
# Track frame offsets:
# 150
# 17751
# 32873
# 46406
# 60597
# 76417
# 94187
# 106322
# 120596
# 135750
# 150138
# 163705
# 174913
# 190621
# 204591
# 219641
# 231084
# 249476
# 261145
# 272778
# 284901
#
# Disc length: 3951 seconds
# Revision: 0
# Processed by: cddbd v1.5.2PL0 Copyright (c) Steve Scherf et al.
# Submitted via: VisiTrax 2.11.3.279 - For more info visit www.synapsa.com
#
DISCID=1c0f6d15
DTITLE=Various Artist - 21 Winners: Best Of Country
DYEAR=1900
DGENRE=Country
TTITLE0=T. Graham Brown - Dont Go To Strangers
TTITLE1=Lee Greenwood - Dixie Road
TTITLE2=Mel McDaniel - Baby's Got Her Blue Jeans On
TTITLE3=Lace J Daltons - 16th Avenue
TTITLE4=Johnny Lee - Looking For Love
TTITLE5=Judy Rodman - Until I Met You
TTITLE6=Mark Gray - Diamond In The Dust
TTITLE7=Margo Smith - It Only Hurts For A Little While
TTITLE8=Charlie Rich - On My Knees
TTITLE9=Johnny Paycheck - Friend Lover Wife
TTITLE10=Dickey Lee - 9,999,999 Tears
TTITLE11=John Wesley Ryles - Once In A Lifetime Thing
TTITLE12=Lacy J Dalton - Taking It Easy
TTITLE13=Lee Greenwood - I.O.U.
TTITLE14=T. Graham Brown - I Tell It Like It Used To Be
TTITLE15=Charlie Rich - Rollin With The Flow
TTITLE16=Joel Sonnier - Tear Stained Letter
TTITLE17=Eddy Raven - Im Gonna Get You
TTITLE18=Mel Mcdaniel - Stand Up
TTITLE19=Johnny Paycheck - Take This Job And Shove It
TTITLE20=Freddy Fender - Before The Next Teardrop Falls
EXTD=
EXTT0=
EXTT1=
EXTT2=
EXTT3=
EXTT4=
EXTT5=
EXTT6=
EXTT7=
EXTT8=
EXTT9=
EXTT10=
EXTT11=
EXTT12=
EXTT13=
EXTT14=
EXTT15=
EXTT16=
EXTT17=
EXTT18=
EXTT19=
EXTT20=
PLAYORDER=
